<?xml version="1.0" encoding="UTF-8"?>
<svg id="Layer_1" data-name="Layer 1" xmlns="http://www.w3.org/2000/svg" viewBox="0 0 581.41 222.33">
  <defs>
    <style>
      .cls-1 {
        fill: #fff;
      }

      .cls-2, .cls-3 {
        fill: #1d1d1b;
      }

      .cls-3 {
        fill-rule: evenodd;
      }
    </style>
  </defs>
  <path class="cls-3" d="M416.19,148.82c-26-.3-98.31-53.72-33.42-110.33-31.95-32.07,36.54-58.28,38.06-18.06,0,0,32.01-6.39,52.2,12.5,20.08-33.29,66.85,13.98,28.31,32.41,26.86,51.56-25.21,102.52-85.14,83.48Z"/>
  <circle class="cls-1" cx="458.96" cy="79.37" r="15.79"/>
  <circle class="cls-1" cx="406.86" cy="68.43" r="15.86"/>
  <g>
    <path class="cls-2" d="M177.4,188.14c-1.25,0-2.51-.08-3.74-.25-6.93-.94-13-4.51-17.12-10.05-4.38-5.91-6.1-13.44-4.83-21.21,.63-3.9,2.01-7.77,4.04-11.36h-23.43c-9.3,0-17.77-4.05-23.23-11.12-5.76-7.45-7.59-17.45-5-27.42,4.54-17.47,20.62-30.65,37.42-30.65h49.61c6.06,0,11.73,2.63,15.55,7.22,.25,.3,.48,.6,.71,.91,3.6-1.12,7.29-1.71,10.99-1.71,1.02,0,2.06,.05,3.07,.14,2.84,.25,5.57,.87,8.15,1.82,.23-3.2,.96-6.42,2.18-9.55,4.64-11.9,15.74-20.88,27.61-22.38,1.22-.15,2.44-.23,3.64-.23,9.97,0,18.81,5.37,23.19,14.05l9.06,16.73c2.13-3.18,4.73-6.09,7.59-8.79,.14-.13,.28-.27,.42-.4l34.15-31.21c6.4-6.11,14.34-9.47,22.41-9.47,1.25,0,2.51,.08,3.74,.25,6.93,.94,13,4.5,17.11,10.05,4.38,5.91,6.1,13.45,4.83,21.21-.64,3.91-2.01,7.77-4.04,11.36h23.96c9.27,0,17.66,4.1,23.01,11.24,1.61,2.15,2.9,4.5,3.85,7l3.94-3.26c6.52-5.39,14.31-8.37,22-8.64,.25,0,.5-.02,.76-.02h80.75c9.71,0,18.32,4.42,23.64,12.12,5.87,8.5,6.87,19.63,2.74,30.53-5.23,13.81-17.93,24.35-31.61,26.22-1.5,.21-3.02,.31-4.5,.31-11.93,0-21.8-6.67-26.46-17.31-.05-.12-.1-.23-.15-.35l-3.81-8.87h-14.29l-12.94,21.08-.84,1.39c-.07,.12-.14,.23-.21,.34-8.29,13.36-22.32,22.13-36.38,22.13-1.62,0-3.24-.11-4.83-.34-8.15-1.16-15.29-5.39-20.11-11.9-2.98-4.03-4.92-8.71-5.77-13.75-2.96,.81-6,1.24-9.06,1.24h-49.07c-6.07,0-11.73-2.63-15.55-7.22-.25-.3-.48-.6-.71-.91-3.6,1.12-7.3,1.71-10.99,1.71-1.02,0-2.06-.05-3.07-.14-5.1-.46-9.85-2.08-13.95-4.71-7.15,13.11-20.67,22.64-34.41,23.81-1.01,.09-2.03,.13-3.03,.13-11.43,0-21.06-5.55-26.48-14.47-1.12,1.25-2.33,2.44-3.57,3.61-.13,.13-.27,.26-.4,.38l-34.15,31.21c-6.4,6.11-14.34,9.47-22.41,9.47Z"/>
    <path class="cls-2" d="M178.2,188.84c-1.25,0-2.51-.08-3.74-.25-6.93-.94-13-4.51-17.12-10.05-4.38-5.91-6.1-13.44-4.83-21.21,.63-3.9,2.01-7.77,4.04-11.36h-23.43c-9.3,0-17.77-4.05-23.23-11.12-5.76-7.45-7.59-17.45-5-27.42,4.54-17.47,20.62-30.65,37.42-30.65h49.61c6.06,0,11.73,2.63,15.55,7.22,.25,.3,.48,.6,.71,.91,3.6-1.12,7.29-1.71,10.99-1.71,1.02,0,2.06,.05,3.07,.14,2.84,.25,5.57,.87,8.15,1.82,.23-3.2,.96-6.42,2.18-9.55,4.64-11.9,15.74-20.88,27.61-22.38,1.22-.15,2.44-.23,3.64-.23,9.97,0,18.81,5.37,23.19,14.05l9.06,16.73c2.13-3.18,4.73-6.09,7.59-8.79,.14-.13,.28-.27,.42-.4l34.15-31.21c6.4-6.11,14.34-9.47,22.41-9.47,1.25,0,2.51,.08,3.74,.25,6.93,.94,13,4.5,17.11,10.05,4.38,5.91,6.1,13.45,4.83,21.21-.64,3.91-2.01,7.77-4.04,11.36h23.96c9.27,0,17.66,4.1,23.01,11.24,1.61,2.15,2.9,4.5,3.85,7l3.94-3.26c6.52-5.39,14.31-8.37,22-8.64,.25,0,.5-.02,.76-.02h80.75c9.71,0,18.32,4.42,23.64,12.12,5.87,8.5,6.87,19.63,2.74,30.53-5.23,13.81-17.93,24.35-31.61,26.22-1.5,.21-3.02,.31-4.5,.31-11.93,0-21.8-6.67-26.46-17.31-.05-.12-.1-.23-.15-.35l-3.81-8.87h-14.29l-12.94,21.08-.84,1.39c-.07,.12-.14,.23-.21,.34-8.29,13.36-22.32,22.13-36.38,22.13-1.62,0-3.24-.11-4.83-.34-8.15-1.16-15.29-5.39-20.11-11.9-2.98-4.03-4.92-8.71-5.77-13.75-2.96,.81-6,1.24-9.06,1.24h-49.07c-6.07,0-11.73-2.63-15.55-7.22-.25-.3-.48-.6-.71-.91-3.6,1.12-7.3,1.71-10.99,1.71-1.02,0-2.06-.05-3.07-.14-5.1-.46-9.85-2.08-13.95-4.71-7.15,13.11-20.67,22.64-34.41,23.81-1.01,.09-2.03,.13-3.03,.13-11.43,0-21.06-5.55-26.48-14.47-1.12,1.25-2.33,2.44-3.57,3.61-.13,.13-.27,.26-.4,.38l-34.15,31.21c-6.4,6.11-14.34,9.47-22.41,9.47Z"/>
    <path class="cls-2" d="M179,189.54c-1.25,0-2.51-.08-3.74-.25-6.93-.94-13-4.51-17.12-10.05-4.38-5.91-6.1-13.44-4.83-21.21,.63-3.9,2.01-7.77,4.04-11.36h-23.43c-9.3,0-17.77-4.05-23.23-11.12-5.76-7.45-7.59-17.45-5-27.42,4.54-17.47,20.62-30.65,37.42-30.65h49.61c6.06,0,11.73,2.63,15.55,7.22,.25,.3,.48,.6,.71,.91,3.6-1.12,7.29-1.71,10.99-1.71,1.02,0,2.06,.05,3.07,.14,2.84,.25,5.57,.87,8.15,1.82,.23-3.2,.96-6.42,2.18-9.55,4.64-11.9,15.74-20.88,27.61-22.38,1.22-.15,2.44-.23,3.64-.23,9.97,0,18.81,5.37,23.19,14.05l9.06,16.73c2.13-3.18,4.73-6.09,7.59-8.79,.14-.13,.28-.27,.42-.4l34.15-31.21c6.4-6.11,14.34-9.47,22.41-9.47,1.25,0,2.51,.08,3.74,.25,6.93,.94,13,4.5,17.11,10.05,4.38,5.91,6.1,13.45,4.83,21.21-.64,3.91-2.01,7.77-4.04,11.36h23.96c9.27,0,17.66,4.1,23.01,11.24,1.61,2.15,2.9,4.5,3.85,7l3.94-3.26c6.52-5.39,14.31-8.37,22-8.64,.25,0,.5-.02,.76-.02h80.75c9.71,0,18.32,4.42,23.64,12.12,5.87,8.5,6.87,19.63,2.74,30.53-5.23,13.81-17.93,24.35-31.61,26.22-1.5,.21-3.02,.31-4.5,.31-11.93,0-21.8-6.67-26.46-17.31-.05-.12-.1-.23-.15-.35l-3.81-8.87h-14.29l-12.94,21.08-.84,1.39c-.07,.12-.14,.23-.21,.34-8.29,13.36-22.32,22.13-36.38,22.13-1.62,0-3.24-.11-4.83-.34-8.15-1.16-15.29-5.39-20.11-11.9-2.98-4.03-4.92-8.71-5.77-13.75-2.96,.81-6,1.24-9.06,1.24h-49.07c-6.07,0-11.73-2.63-15.55-7.22-.25-.3-.48-.6-.71-.91-3.6,1.12-7.3,1.71-10.99,1.71-1.02,0-2.06-.05-3.07-.14-5.1-.46-9.85-2.08-13.95-4.71-7.15,13.11-20.67,22.64-34.41,23.81-1.01,.09-2.03,.13-3.03,.13-11.43,0-21.06-5.55-26.48-14.47-1.12,1.25-2.33,2.44-3.57,3.61-.13,.13-.27,.26-.4,.38l-34.15,31.21c-6.4,6.11-14.34,9.47-22.41,9.47Z"/>
    <path class="cls-2" d="M179.79,190.23c-1.25,0-2.51-.08-3.74-.25-6.93-.94-13-4.51-17.12-10.05-4.38-5.91-6.1-13.44-4.83-21.21,.63-3.9,2.01-7.77,4.04-11.36h-23.43c-9.3,0-17.77-4.05-23.23-11.12-5.76-7.45-7.59-17.45-5-27.42,4.54-17.47,20.62-30.65,37.42-30.65h49.61c6.06,0,11.73,2.63,15.55,7.22,.25,.3,.48,.6,.71,.91,3.6-1.12,7.29-1.71,10.99-1.71,1.02,0,2.06,.05,3.07,.14,2.84,.25,5.57,.87,8.15,1.82,.23-3.2,.96-6.42,2.18-9.55,4.64-11.9,15.74-20.88,27.61-22.38,1.22-.15,2.44-.23,3.64-.23,9.97,0,18.81,5.37,23.19,14.05l9.06,16.73c2.13-3.18,4.73-6.09,7.59-8.79,.14-.13,.28-.27,.42-.4l34.15-31.21c6.4-6.11,14.34-9.47,22.41-9.47,1.25,0,2.51,.08,3.74,.25,6.93,.94,13,4.5,17.11,10.05,4.38,5.91,6.1,13.45,4.83,21.21-.64,3.91-2.01,7.77-4.04,11.36h23.96c9.27,0,17.66,4.1,23.01,11.24,1.61,2.15,2.9,4.5,3.85,7l3.94-3.26c6.52-5.39,14.31-8.37,22-8.64,.25,0,.5-.02,.76-.02h80.75c9.71,0,18.32,4.42,23.64,12.12,5.87,8.5,6.87,19.63,2.74,30.53-5.23,13.81-17.93,24.35-31.61,26.22-1.5,.21-3.02,.31-4.5,.31-11.93,0-21.8-6.67-26.46-17.31-.05-.12-.1-.23-.15-.35l-3.81-8.87h-14.29l-12.94,21.08-.84,1.39c-.07,.12-.14,.23-.21,.34-8.29,13.36-22.32,22.13-36.38,22.13-1.62,0-3.24-.11-4.83-.34-8.15-1.16-15.29-5.39-20.11-11.9-2.98-4.03-4.92-8.71-5.77-13.75-2.96,.81-6,1.24-9.06,1.24h-49.07c-6.07,0-11.73-2.63-15.55-7.22-.25-.3-.48-.6-.71-.91-3.6,1.12-7.3,1.71-10.99,1.71-1.02,0-2.06-.05-3.07-.14-5.1-.46-9.85-2.08-13.95-4.71-7.15,13.11-20.67,22.64-34.41,23.81-1.01,.09-2.03,.13-3.03,.13-11.43,0-21.06-5.55-26.48-14.47-1.12,1.25-2.33,2.44-3.57,3.61-.13,.13-.27,.26-.4,.38l-34.15,31.21c-6.4,6.11-14.34,9.47-22.41,9.47Z"/>
    <path class="cls-2" d="M180.59,190.93c-1.25,0-2.51-.08-3.74-.25-6.93-.94-13-4.51-17.12-10.05-4.38-5.91-6.1-13.44-4.83-21.21,.63-3.9,2.01-7.77,4.04-11.36h-23.43c-9.3,0-17.77-4.05-23.23-11.12-5.76-7.45-7.59-17.45-5-27.42,4.54-17.47,20.62-30.65,37.42-30.65h49.61c6.06,0,11.73,2.63,15.55,7.22,.25,.3,.48,.6,.71,.91,3.6-1.12,7.29-1.71,10.99-1.71,1.02,0,2.06,.05,3.07,.14,2.84,.25,5.57,.87,8.15,1.82,.23-3.2,.96-6.42,2.18-9.55,4.64-11.9,15.74-20.88,27.61-22.38,1.22-.15,2.44-.23,3.64-.23,9.97,0,18.81,5.37,23.19,14.05l9.06,16.73c2.13-3.18,4.73-6.09,7.59-8.79,.14-.13,.28-.27,.42-.4l34.15-31.21c6.4-6.11,14.34-9.47,22.41-9.47,1.25,0,2.51,.08,3.74,.25,6.93,.94,13,4.5,17.11,10.05,4.38,5.91,6.1,13.45,4.83,21.21-.64,3.91-2.01,7.77-4.04,11.36h23.96c9.27,0,17.66,4.1,23.01,11.24,1.61,2.15,2.9,4.5,3.85,7l3.94-3.26c6.52-5.39,14.31-8.37,22-8.64,.25,0,.5-.02,.76-.02h80.75c9.71,0,18.32,4.42,23.64,12.12,5.87,8.5,6.87,19.63,2.74,30.53-5.23,13.81-17.93,24.35-31.61,26.22-1.5,.21-3.02,.31-4.5,.31-11.93,0-21.8-6.67-26.46-17.31-.05-.12-.1-.23-.15-.35l-3.81-8.87h-14.29l-12.94,21.08-.84,1.39c-.07,.12-.14,.23-.21,.34-8.29,13.36-22.32,22.13-36.38,22.13-1.62,0-3.24-.11-4.83-.34-8.15-1.16-15.29-5.39-20.11-11.9-2.98-4.03-4.92-8.71-5.77-13.75-2.96,.81-6,1.24-9.06,1.24h-49.07c-6.07,0-11.73-2.63-15.55-7.22-.25-.3-.48-.6-.71-.91-3.6,1.12-7.3,1.71-10.99,1.71-1.02,0-2.06-.05-3.07-.14-5.1-.46-9.85-2.08-13.95-4.71-7.15,13.11-20.67,22.64-34.41,23.81-1.01,.09-2.03,.13-3.03,.13-11.43,0-21.06-5.55-26.48-14.47-1.12,1.25-2.33,2.44-3.57,3.61-.13,.13-.27,.26-.4,.38l-34.15,31.21c-6.4,6.11-14.34,9.47-22.41,9.47Z"/>
    <path class="cls-2" d="M181.39,191.63c-1.25,0-2.51-.08-3.74-.25-6.93-.94-13-4.51-17.12-10.05-4.38-5.91-6.1-13.44-4.83-21.21,.63-3.9,2.01-7.77,4.04-11.36h-23.43c-9.3,0-17.77-4.05-23.23-11.12-5.76-7.45-7.59-17.45-5-27.42,4.54-17.47,20.62-30.65,37.42-30.65h49.61c6.06,0,11.73,2.63,15.55,7.22,.25,.3,.48,.6,.71,.91,3.6-1.12,7.29-1.71,10.99-1.71,1.02,0,2.06,.05,3.07,.14,2.84,.25,5.57,.87,8.15,1.82,.23-3.2,.96-6.42,2.18-9.55,4.64-11.9,15.74-20.88,27.61-22.38,1.22-.15,2.44-.23,3.64-.23,9.97,0,18.81,5.37,23.19,14.05l9.06,16.73c2.13-3.18,4.73-6.09,7.59-8.79,.14-.13,.28-.27,.42-.4l34.15-31.21c6.4-6.11,14.34-9.47,22.41-9.47,1.25,0,2.51,.08,3.74,.25,6.93,.94,13,4.5,17.11,10.05,4.38,5.91,6.1,13.45,4.83,21.21-.64,3.91-2.01,7.77-4.04,11.36h23.96c9.27,0,17.66,4.1,23.01,11.24,1.61,2.15,2.9,4.5,3.85,7l3.94-3.26c6.52-5.39,14.31-8.37,22-8.64,.25,0,.5-.02,.76-.02h80.75c9.71,0,18.32,4.42,23.64,12.12,5.87,8.5,6.87,19.63,2.74,30.53-5.23,13.81-17.93,24.35-31.61,26.22-1.5,.21-3.02,.31-4.5,.31-11.93,0-21.8-6.67-26.46-17.31-.05-.12-.1-.23-.15-.35l-3.81-8.87h-14.29l-12.94,21.08-.84,1.39c-.07,.12-.14,.23-.21,.34-8.29,13.36-22.32,22.13-36.38,22.13-1.62,0-3.24-.11-4.83-.34-8.15-1.16-15.29-5.39-20.11-11.9-2.98-4.03-4.92-8.71-5.77-13.75-2.96,.81-6,1.24-9.06,1.24h-49.07c-6.07,0-11.73-2.63-15.55-7.22-.25-.3-.48-.6-.71-.91-3.6,1.12-7.3,1.71-10.99,1.71-1.02,0-2.06-.05-3.07-.14-5.1-.46-9.85-2.08-13.95-4.71-7.15,13.11-20.67,22.64-34.41,23.81-1.01,.09-2.03,.13-3.03,.13-11.43,0-21.06-5.55-26.48-14.47-1.12,1.25-2.33,2.44-3.57,3.61-.13,.13-.27,.26-.4,.38l-34.15,31.21c-6.4,6.11-14.34,9.47-22.41,9.47Z"/>
    <path class="cls-2" d="M182.19,192.33c-1.25,0-2.51-.08-3.74-.25-6.93-.94-13-4.51-17.12-10.05-4.38-5.91-6.1-13.44-4.83-21.21,.63-3.9,2.01-7.77,4.04-11.36h-23.43c-9.3,0-17.77-4.05-23.23-11.12-5.76-7.45-7.59-17.45-5-27.42,4.54-17.47,20.62-30.65,37.42-30.65h49.61c6.06,0,11.73,2.63,15.55,7.22,.25,.3,.48,.6,.71,.91,3.6-1.12,7.29-1.71,10.99-1.71,1.02,0,2.06,.05,3.07,.14,2.84,.25,5.57,.87,8.15,1.82,.23-3.2,.96-6.42,2.18-9.55,4.64-11.9,15.74-20.88,27.61-22.38,1.22-.15,2.44-.23,3.64-.23,9.97,0,18.81,5.37,23.19,14.05l9.06,16.73c2.13-3.18,4.73-6.09,7.59-8.79,.14-.13,.28-.27,.42-.4l34.15-31.21c6.4-6.11,14.34-9.47,22.41-9.47,1.25,0,2.51,.08,3.74,.25,6.93,.94,13,4.5,17.11,10.05,4.38,5.91,6.1,13.45,4.83,21.21-.64,3.91-2.01,7.77-4.04,11.36h23.96c9.27,0,17.66,4.1,23.01,11.24,1.61,2.15,2.9,4.5,3.85,7l3.94-3.26c6.52-5.39,14.31-8.37,22-8.64,.25,0,.5-.02,.76-.02h80.75c9.71,0,18.32,4.42,23.64,12.12,5.87,8.5,6.87,19.63,2.74,30.53-5.23,13.81-17.93,24.35-31.61,26.22-1.5,.21-3.02,.31-4.5,.31-11.93,0-21.8-6.67-26.46-17.31-.05-.12-.1-.23-.15-.35l-3.81-8.87h-14.29l-12.94,21.08-.84,1.39c-.07,.12-.14,.23-.21,.34-8.29,13.36-22.32,22.13-36.38,22.13-1.62,0-3.24-.11-4.83-.34-8.15-1.16-15.29-5.39-20.11-11.9-2.98-4.03-4.92-8.71-5.77-13.75-2.96,.81-6,1.24-9.06,1.24h-49.07c-6.07,0-11.73-2.63-15.55-7.22-.25-.3-.48-.6-.71-.91-3.6,1.12-7.3,1.71-10.99,1.71-1.02,0-2.06-.05-3.07-.14-5.1-.46-9.85-2.08-13.95-4.71-7.15,13.11-20.67,22.64-34.41,23.81-1.01,.09-2.03,.13-3.03,.13-11.43,0-21.06-5.55-26.48-14.47-1.12,1.25-2.33,2.44-3.57,3.61-.13,.13-.27,.26-.4,.38l-34.15,31.21c-6.4,6.11-14.34,9.47-22.41,9.47Z"/>
    <path class="cls-2" d="M182.98,193.02c-1.25,0-2.51-.08-3.74-.25-6.93-.94-13-4.51-17.12-10.05-4.38-5.91-6.1-13.44-4.83-21.21,.63-3.9,2.01-7.77,4.04-11.36h-23.43c-9.3,0-17.77-4.05-23.23-11.12-5.76-7.45-7.59-17.45-5-27.42,4.54-17.47,20.62-30.65,37.42-30.65h49.61c6.06,0,11.73,2.63,15.55,7.22,.25,.3,.48,.6,.71,.91,3.6-1.12,7.29-1.71,10.99-1.71,1.02,0,2.06,.05,3.07,.14,2.84,.25,5.57,.87,8.15,1.82,.23-3.2,.96-6.42,2.18-9.55,4.64-11.9,15.74-20.88,27.61-22.38,1.22-.15,2.44-.23,3.64-.23,9.97,0,18.81,5.37,23.19,14.05l9.06,16.73c2.13-3.18,4.73-6.09,7.59-8.79,.14-.13,.28-.27,.42-.4l34.15-31.21c6.4-6.11,14.34-9.47,22.41-9.47,1.25,0,2.51,.08,3.74,.25,6.93,.94,13,4.5,17.11,10.05,4.38,5.91,6.1,13.45,4.83,21.21-.64,3.91-2.01,7.77-4.04,11.36h23.96c9.27,0,17.66,4.1,23.01,11.24,1.61,2.15,2.9,4.5,3.85,7l3.94-3.26c6.52-5.39,14.31-8.37,22-8.64,.25,0,.5-.02,.76-.02h80.75c9.71,0,18.32,4.42,23.64,12.12,5.87,8.5,6.87,19.63,2.74,30.53-5.23,13.81-17.93,24.35-31.61,26.22-1.5,.21-3.02,.31-4.5,.31-11.93,0-21.8-6.67-26.46-17.31-.05-.12-.1-.23-.15-.35l-3.81-8.87h-14.29l-12.94,21.08-.84,1.39c-.07,.12-.14,.23-.21,.34-8.29,13.36-22.32,22.13-36.38,22.13-1.62,0-3.24-.11-4.83-.34-8.15-1.16-15.29-5.39-20.11-11.9-2.98-4.03-4.92-8.71-5.77-13.75-2.96,.81-6,1.24-9.06,1.24h-49.07c-6.07,0-11.73-2.63-15.55-7.22-.25-.3-.48-.6-.71-.91-3.6,1.12-7.3,1.71-10.99,1.71-1.02,0-2.06-.05-3.07-.14-5.1-.46-9.85-2.08-13.95-4.71-7.15,13.11-20.67,22.64-34.41,23.81-1.01,.09-2.03,.13-3.03,.13-11.43,0-21.06-5.55-26.48-14.47-1.12,1.25-2.33,2.44-3.57,3.61-.13,.13-.27,.26-.4,.38l-34.15,31.21c-6.4,6.11-14.34,9.47-22.41,9.47Z"/>
    <path class="cls-2" d="M183.78,193.72c-1.25,0-2.51-.08-3.74-.25-6.93-.94-13-4.51-17.12-10.05-4.38-5.91-6.1-13.44-4.83-21.21,.63-3.9,2.01-7.77,4.04-11.36h-23.43c-9.3,0-17.77-4.05-23.23-11.12-5.76-7.45-7.59-17.45-5-27.42,4.54-17.47,20.62-30.65,37.42-30.65h49.61c6.06,0,11.73,2.63,15.55,7.22,.25,.3,.48,.6,.71,.91,3.6-1.12,7.29-1.71,10.99-1.71,1.02,0,2.06,.05,3.07,.14,2.84,.25,5.57,.87,8.15,1.82,.23-3.2,.96-6.42,2.18-9.55,4.64-11.9,15.74-20.88,27.61-22.38,1.22-.15,2.44-.23,3.64-.23,9.97,0,18.81,5.37,23.19,14.05l9.06,16.73c2.13-3.18,4.73-6.09,7.59-8.79,.14-.13,.28-.27,.42-.4l34.15-31.21c6.4-6.11,14.34-9.47,22.41-9.47,1.25,0,2.51,.08,3.74,.25,6.93,.94,13,4.5,17.11,10.05,4.38,5.91,6.1,13.45,4.83,21.21-.64,3.91-2.01,7.77-4.04,11.36h23.96c9.27,0,17.66,4.1,23.01,11.24,1.61,2.15,2.9,4.5,3.85,7l3.94-3.26c6.52-5.39,14.31-8.37,22-8.64,.25,0,.5-.02,.76-.02h80.75c9.71,0,18.32,4.42,23.64,12.12,5.87,8.5,6.87,19.63,2.74,30.53-5.23,13.81-17.93,24.35-31.61,26.22-1.5,.21-3.02,.31-4.5,.31-11.93,0-21.8-6.67-26.46-17.31-.05-.12-.1-.23-.15-.35l-3.81-8.87h-14.29l-12.94,21.08-.84,1.39c-.07,.12-.14,.23-.21,.34-8.29,13.36-22.32,22.13-36.38,22.13-1.62,0-3.24-.11-4.83-.34-8.15-1.16-15.29-5.39-20.11-11.9-2.98-4.03-4.92-8.71-5.77-13.75-2.96,.81-6,1.24-9.06,1.24h-49.07c-6.07,0-11.73-2.63-15.55-7.22-.25-.3-.48-.6-.71-.91-3.6,1.12-7.3,1.71-10.99,1.71-1.02,0-2.06-.05-3.07-.14-5.1-.46-9.85-2.08-13.95-4.71-7.15,13.11-20.67,22.64-34.41,23.81-1.01,.09-2.03,.13-3.03,.13-11.43,0-21.06-5.55-26.48-14.47-1.12,1.25-2.33,2.44-3.57,3.61-.13,.13-.27,.26-.4,.38l-34.15,31.21c-6.4,6.11-14.34,9.47-22.41,9.47Z"/>
    <path class="cls-2" d="M184.58,194.42c-1.25,0-2.51-.08-3.74-.25-6.93-.94-13-4.51-17.12-10.05-4.38-5.91-6.1-13.44-4.83-21.21,.63-3.9,2.01-7.77,4.04-11.36h-23.43c-9.3,0-17.77-4.05-23.23-11.12-5.76-7.45-7.59-17.45-5-27.42,4.54-17.47,20.62-30.65,37.42-30.65h49.61c6.06,0,11.73,2.63,15.55,7.22,.25,.3,.48,.6,.71,.91,3.6-1.12,7.29-1.71,10.99-1.71,1.02,0,2.06,.05,3.07,.14,2.84,.25,5.57,.87,8.15,1.82,.23-3.2,.96-6.42,2.18-9.55,4.64-11.9,15.74-20.88,27.61-22.38,1.22-.15,2.44-.23,3.64-.23,9.97,0,18.81,5.37,23.19,14.05l9.06,16.73c2.13-3.18,4.73-6.09,7.59-8.79,.14-.13,.28-.27,.42-.4l34.15-31.21c6.4-6.11,14.34-9.47,22.41-9.47,1.25,0,2.51,.08,3.74,.25,6.93,.94,13,4.5,17.11,10.05,4.38,5.91,6.1,13.45,4.83,21.21-.64,3.91-2.01,7.77-4.04,11.36h23.96c9.27,0,17.66,4.1,23.01,11.24,1.61,2.15,2.9,4.5,3.85,7l3.94-3.26c6.52-5.39,14.31-8.37,22-8.64,.25,0,.5-.02,.76-.02h80.75c9.71,0,18.32,4.42,23.64,12.12,5.87,8.5,6.87,19.63,2.74,30.53-5.23,13.81-17.93,24.35-31.61,26.22-1.5,.21-3.02,.31-4.5,.31-11.93,0-21.8-6.67-26.46-17.31-.05-.12-.1-.23-.15-.35l-3.81-8.87h-14.29l-12.94,21.08-.84,1.39c-.07,.12-.14,.23-.21,.34-8.29,13.36-22.32,22.13-36.38,22.13-1.62,0-3.24-.11-4.83-.34-8.15-1.16-15.29-5.39-20.11-11.9-2.98-4.03-4.92-8.71-5.77-13.75-2.96,.81-6,1.24-9.06,1.24h-49.07c-6.07,0-11.73-2.63-15.55-7.22-.25-.3-.48-.6-.71-.91-3.6,1.12-7.3,1.71-10.99,1.71-1.02,0-2.06-.05-3.07-.14-5.1-.46-9.85-2.08-13.95-4.71-7.15,13.11-20.67,22.64-34.41,23.81-1.01,.09-2.03,.13-3.03,.13-11.43,0-21.06-5.55-26.48-14.47-1.12,1.25-2.33,2.44-3.57,3.61-.13,.13-.27,.26-.4,.38l-34.15,31.21c-6.4,6.11-14.34,9.47-22.41,9.47Z"/>
    <path class="cls-2" d="M185.37,195.12c-1.25,0-2.51-.08-3.74-.25-6.93-.94-13-4.51-17.12-10.05-4.38-5.91-6.1-13.44-4.83-21.21,.63-3.9,2.01-7.77,4.04-11.36h-23.43c-9.3,0-17.77-4.05-23.23-11.12-5.76-7.45-7.59-17.45-5-27.42,4.54-17.47,20.62-30.65,37.42-30.65h49.61c6.06,0,11.73,2.63,15.55,7.22,.25,.3,.48,.6,.71,.91,3.6-1.12,7.29-1.71,10.99-1.71,1.02,0,2.06,.05,3.07,.14,2.84,.25,5.57,.87,8.15,1.82,.23-3.2,.96-6.42,2.18-9.55,4.64-11.9,15.74-20.88,27.61-22.38,1.22-.15,2.44-.23,3.64-.23,9.97,0,18.81,5.37,23.19,14.05l9.06,16.73c2.13-3.18,4.73-6.09,7.59-8.79,.14-.13,.28-.27,.42-.4l34.15-31.21c6.4-6.11,14.34-9.47,22.41-9.47,1.25,0,2.51,.08,3.74,.25,6.93,.94,13,4.5,17.11,10.05,4.38,5.91,6.1,13.45,4.83,21.21-.64,3.91-2.01,7.77-4.04,11.36h23.96c9.27,0,17.66,4.1,23.01,11.24,1.61,2.15,2.9,4.5,3.85,7l3.94-3.26c6.52-5.39,14.31-8.37,22-8.64,.25,0,.5-.02,.76-.02h80.75c9.71,0,18.32,4.42,23.64,12.12,5.87,8.5,6.87,19.63,2.74,30.53-5.23,13.81-17.93,24.35-31.61,26.22-1.5,.21-3.02,.31-4.5,.31-11.93,0-21.8-6.67-26.46-17.31-.05-.12-.1-.23-.15-.35l-3.81-8.87h-14.29l-12.94,21.08-.84,1.39c-.07,.12-.14,.23-.21,.34-8.29,13.36-22.32,22.13-36.38,22.13-1.62,0-3.24-.11-4.83-.34-8.15-1.16-15.29-5.39-20.11-11.9-2.98-4.03-4.92-8.71-5.77-13.75-2.96,.81-6,1.24-9.06,1.24h-49.07c-6.07,0-11.73-2.63-15.55-7.22-.25-.3-.48-.6-.71-.91-3.6,1.12-7.3,1.71-10.99,1.71-1.02,0-2.06-.05-3.07-.14-5.1-.46-9.85-2.08-13.95-4.71-7.15,13.11-20.67,22.64-34.41,23.81-1.01,.09-2.03,.13-3.03,.13-11.43,0-21.06-5.55-26.48-14.47-1.12,1.25-2.33,2.44-3.57,3.61-.13,.13-.27,.26-.4,.38l-34.15,31.21c-6.4,6.11-14.34,9.47-22.41,9.47Z"/>
    <path class="cls-2" d="M186.17,195.81c-1.25,0-2.51-.08-3.74-.25-6.93-.94-13-4.51-17.12-10.05-4.38-5.91-6.1-13.44-4.83-21.21,.63-3.9,2.01-7.77,4.04-11.36h-23.43c-9.3,0-17.77-4.05-23.23-11.12-5.76-7.45-7.59-17.45-5-27.42,4.54-17.47,20.62-30.65,37.42-30.65h49.61c6.06,0,11.73,2.63,15.55,7.22,.25,.3,.48,.6,.71,.91,3.6-1.12,7.29-1.71,10.99-1.71,1.02,0,2.06,.05,3.07,.14,2.84,.25,5.57,.87,8.15,1.82,.23-3.2,.96-6.42,2.18-9.55,4.64-11.9,15.74-20.88,27.61-22.38,1.22-.15,2.44-.23,3.64-.23,9.97,0,18.81,5.37,23.19,14.05l9.06,16.73c2.13-3.18,4.73-6.09,7.59-8.79,.14-.13,.28-.27,.42-.4l34.15-31.21c6.4-6.11,14.34-9.47,22.41-9.47,1.25,0,2.51,.08,3.74,.25,6.93,.94,13,4.5,17.11,10.05,4.38,5.91,6.1,13.45,4.83,21.21-.64,3.91-2.01,7.77-4.04,11.36h23.96c9.27,0,17.66,4.1,23.01,11.24,1.61,2.15,2.9,4.5,3.85,7l3.94-3.26c6.52-5.39,14.31-8.37,22-8.64,.25,0,.5-.02,.76-.02h80.75c9.71,0,18.32,4.42,23.64,12.12,5.87,8.5,6.87,19.63,2.74,30.53-5.23,13.81-17.93,24.35-31.61,26.22-1.5,.21-3.02,.31-4.5,.31-11.93,0-21.8-6.67-26.46-17.31-.05-.12-.1-.23-.15-.35l-3.81-8.87h-14.29l-12.94,21.08-.84,1.39c-.07,.12-.14,.23-.21,.34-8.29,13.36-22.32,22.13-36.38,22.13-1.62,0-3.24-.11-4.83-.34-8.15-1.16-15.29-5.39-20.11-11.9-2.98-4.03-4.92-8.71-5.77-13.75-2.96,.81-6,1.24-9.06,1.24h-49.07c-6.07,0-11.73-2.63-15.55-7.22-.25-.3-.48-.6-.71-.91-3.6,1.12-7.3,1.71-10.99,1.71-1.02,0-2.06-.05-3.07-.14-5.1-.46-9.85-2.08-13.95-4.71-7.15,13.11-20.67,22.64-34.41,23.81-1.01,.09-2.03,.13-3.03,.13-11.43,0-21.06-5.55-26.48-14.47-1.12,1.25-2.33,2.44-3.57,3.61-.13,.13-.27,.26-.4,.38l-34.15,31.21c-6.4,6.11-14.34,9.47-22.41,9.47Z"/>
    <path class="cls-2" d="M186.97,196.51c-1.25,0-2.51-.08-3.74-.25-6.93-.94-13-4.51-17.12-10.05-4.38-5.91-6.1-13.44-4.83-21.21,.63-3.9,2.01-7.77,4.04-11.36h-23.43c-9.3,0-17.77-4.05-23.23-11.12-5.76-7.45-7.59-17.45-5-27.42,4.54-17.47,20.62-30.65,37.42-30.65h49.61c6.06,0,11.73,2.63,15.55,7.22,.25,.3,.48,.6,.71,.91,3.6-1.12,7.29-1.71,10.99-1.71,1.02,0,2.06,.05,3.07,.14,2.84,.25,5.57,.87,8.15,1.82,.23-3.2,.96-6.42,2.18-9.55,4.64-11.9,15.74-20.88,27.61-22.38,1.22-.15,2.44-.23,3.64-.23,9.97,0,18.81,5.37,23.19,14.05l9.06,16.73c2.13-3.18,4.73-6.09,7.59-8.79,.14-.13,.28-.27,.42-.4l34.15-31.21c6.4-6.11,14.34-9.47,22.41-9.47,1.25,0,2.51,.08,3.74,.25,6.93,.94,13,4.5,17.11,10.05,4.38,5.91,6.1,13.45,4.83,21.21-.64,3.91-2.01,7.77-4.04,11.36h23.96c9.27,0,17.66,4.1,23.01,11.24,1.61,2.15,2.9,4.5,3.85,7l3.94-3.26c6.52-5.39,14.31-8.37,22-8.64,.25,0,.5-.02,.76-.02h80.75c9.71,0,18.32,4.42,23.64,12.12,5.87,8.5,6.87,19.63,2.74,30.53-5.23,13.81-17.93,24.35-31.61,26.22-1.5,.21-3.02,.31-4.5,.31-11.93,0-21.8-6.67-26.46-17.31-.05-.12-.1-.23-.15-.35l-3.81-8.87h-14.29l-12.94,21.08-.84,1.39c-.07,.12-.14,.23-.21,.34-8.29,13.36-22.32,22.13-36.38,22.13-1.62,0-3.24-.11-4.83-.34-8.15-1.16-15.29-5.39-20.11-11.9-2.98-4.03-4.92-8.71-5.77-13.75-2.96,.81-6,1.24-9.06,1.24h-49.07c-6.07,0-11.73-2.63-15.55-7.22-.25-.3-.48-.6-.71-.91-3.6,1.12-7.3,1.71-10.99,1.71-1.02,0-2.06-.05-3.07-.14-5.1-.46-9.85-2.08-13.95-4.71-7.15,13.11-20.67,22.64-34.41,23.81-1.01,.09-2.03,.13-3.03,.13-11.43,0-21.06-5.55-26.48-14.47-1.12,1.25-2.33,2.44-3.57,3.61-.13,.13-.27,.26-.4,.38l-34.15,31.21c-6.4,6.11-14.34,9.47-22.41,9.47Z"/>
    <path class="cls-2" d="M187.77,197.21c-1.25,0-2.51-.08-3.74-.25-6.93-.94-13-4.51-17.12-10.05-4.38-5.91-6.1-13.44-4.83-21.21,.63-3.9,2.01-7.77,4.04-11.36h-23.43c-9.3,0-17.77-4.05-23.23-11.12-5.76-7.45-7.59-17.45-5-27.42,4.54-17.47,20.62-30.65,37.42-30.65h49.61c6.06,0,11.73,2.63,15.55,7.22,.25,.3,.48,.6,.71,.91,3.6-1.12,7.29-1.71,10.99-1.71,1.02,0,2.06,.05,3.07,.14,2.84,.25,5.57,.87,8.15,1.82,.23-3.2,.96-6.42,2.18-9.55,4.64-11.9,15.74-20.88,27.61-22.38,1.22-.15,2.44-.23,3.64-.23,9.97,0,18.81,5.37,23.19,14.05l9.06,16.73c2.13-3.18,4.73-6.09,7.59-8.79,.14-.13,.28-.27,.42-.4l34.15-31.21c6.4-6.11,14.34-9.47,22.41-9.47,1.25,0,2.51,.08,3.74,.25,6.93,.94,13,4.5,17.11,10.05,4.38,5.91,6.1,13.45,4.83,21.21-.64,3.91-2.01,7.77-4.04,11.36h23.96c9.27,0,17.66,4.1,23.01,11.24,1.61,2.15,2.9,4.5,3.85,7l3.94-3.26c6.52-5.39,14.31-8.37,22-8.64,.25,0,.5-.02,.76-.02h80.75c9.71,0,18.32,4.42,23.64,12.12,5.87,8.5,6.87,19.63,2.74,30.53-5.23,13.81-17.93,24.35-31.61,26.22-1.5,.21-3.02,.31-4.5,.31-11.93,0-21.8-6.67-26.46-17.31-.05-.12-.1-.23-.15-.35l-3.81-8.87h-14.29l-12.94,21.08-.84,1.39c-.07,.12-.14,.23-.21,.34-8.29,13.36-22.32,22.13-36.38,22.13-1.62,0-3.24-.11-4.83-.34-8.15-1.16-15.29-5.39-20.11-11.9-2.98-4.03-4.92-8.71-5.77-13.75-2.96,.81-6,1.24-9.06,1.24h-49.07c-6.07,0-11.73-2.63-15.55-7.22-.25-.3-.48-.6-.71-.91-3.6,1.12-7.3,1.71-10.99,1.71-1.02,0-2.06-.05-3.07-.14-5.1-.46-9.85-2.08-13.95-4.71-7.15,13.11-20.67,22.64-34.41,23.81-1.01,.09-2.03,.13-3.03,.13-11.43,0-21.06-5.55-26.48-14.47-1.12,1.25-2.33,2.44-3.57,3.61-.13,.13-.27,.26-.4,.38l-34.15,31.21c-6.4,6.11-14.34,9.47-22.41,9.47Z"/>
    <path class="cls-2" d="M188.56,197.91c-1.25,0-2.51-.08-3.74-.25-6.93-.94-13-4.51-17.12-10.05-4.38-5.91-6.1-13.44-4.83-21.21,.63-3.9,2.01-7.77,4.04-11.36h-23.43c-9.3,0-17.77-4.05-23.23-11.12-5.76-7.45-7.59-17.45-5-27.42,4.54-17.47,20.62-30.65,37.42-30.65h49.61c6.06,0,11.73,2.63,15.55,7.22,.25,.3,.48,.6,.71,.91,3.6-1.12,7.29-1.71,10.99-1.71,1.02,0,2.06,.05,3.07,.14,2.84,.25,5.57,.87,8.15,1.82,.23-3.2,.96-6.42,2.18-9.55,4.64-11.9,15.74-20.88,27.61-22.38,1.22-.15,2.44-.23,3.64-.23,9.97,0,18.81,5.37,23.19,14.05l9.06,16.73c2.13-3.18,4.73-6.09,7.59-8.79,.14-.13,.28-.27,.42-.4l34.15-31.21c6.4-6.11,14.34-9.47,22.41-9.47,1.25,0,2.51,.08,3.74,.25,6.93,.94,13,4.5,17.11,10.05,4.38,5.91,6.1,13.45,4.83,21.21-.64,3.91-2.01,7.77-4.04,11.36h23.96c9.27,0,17.66,4.1,23.01,11.24,1.61,2.15,2.9,4.5,3.85,7l3.94-3.26c6.52-5.39,14.31-8.37,22-8.64,.25,0,.5-.02,.76-.02h80.75c9.71,0,18.32,4.42,23.64,12.12,5.87,8.5,6.87,19.63,2.74,30.53-5.23,13.81-17.93,24.35-31.61,26.22-1.5,.21-3.02,.31-4.5,.31-11.93,0-21.8-6.67-26.46-17.31-.05-.12-.1-.23-.15-.35l-3.81-8.87h-14.29l-12.94,21.08-.84,1.39c-.07,.12-.14,.23-.21,.34-8.29,13.36-22.32,22.13-36.38,22.13-1.62,0-3.24-.11-4.83-.34-8.15-1.16-15.29-5.39-20.11-11.9-2.98-4.03-4.92-8.71-5.77-13.75-2.96,.81-6,1.24-9.06,1.24h-49.07c-6.07,0-11.73-2.63-15.55-7.22-.25-.3-.48-.6-.71-.91-3.6,1.12-7.3,1.71-10.99,1.71-1.02,0-2.06-.05-3.07-.14-5.1-.46-9.85-2.08-13.95-4.71-7.15,13.11-20.67,22.64-34.41,23.81-1.01,.09-2.03,.13-3.03,.13-11.43,0-21.06-5.55-26.48-14.47-1.12,1.25-2.33,2.44-3.57,3.61-.13,.13-.27,.26-.4,.38l-34.15,31.21c-6.4,6.11-14.34,9.47-22.41,9.47Z"/>
    <path class="cls-2" d="M189.36,198.6c-1.25,0-2.51-.08-3.74-.25-6.93-.94-13-4.51-17.12-10.05-4.38-5.91-6.1-13.44-4.83-21.21,.63-3.9,2.01-7.77,4.04-11.36h-23.43c-9.3,0-17.77-4.05-23.23-11.12-5.76-7.45-7.59-17.45-5-27.42,4.54-17.47,20.62-30.65,37.42-30.65h49.61c6.06,0,11.73,2.63,15.55,7.22,.25,.3,.48,.6,.71,.91,3.6-1.12,7.29-1.71,10.99-1.71,1.02,0,2.06,.05,3.07,.14,2.84,.25,5.57,.87,8.15,1.82,.23-3.2,.96-6.42,2.18-9.55,4.64-11.9,15.74-20.88,27.61-22.38,1.22-.15,2.44-.23,3.64-.23,9.97,0,18.81,5.37,23.19,14.05l9.06,16.73c2.13-3.18,4.73-6.09,7.59-8.79,.14-.13,.28-.27,.42-.4l34.15-31.21c6.4-6.11,14.34-9.47,22.41-9.47,1.25,0,2.51,.08,3.74,.25,6.93,.94,13,4.5,17.11,10.05,4.38,5.91,6.1,13.45,4.83,21.21-.64,3.91-2.01,7.77-4.04,11.36h23.96c9.27,0,17.66,4.1,23.01,11.24,1.61,2.15,2.9,4.5,3.85,7l3.94-3.26c6.52-5.39,14.31-8.37,22-8.64,.25,0,.5-.02,.76-.02h80.75c9.71,0,18.32,4.42,23.64,12.12,5.87,8.5,6.87,19.63,2.74,30.53-5.23,13.81-17.93,24.35-31.61,26.22-1.5,.21-3.02,.31-4.5,.31-11.93,0-21.8-6.67-26.46-17.31-.05-.12-.1-.23-.15-.35l-3.81-8.87h-14.29l-12.94,21.08-.84,1.39c-.07,.12-.14,.23-.21,.34-8.29,13.36-22.32,22.13-36.38,22.13-1.62,0-3.24-.11-4.83-.34-8.15-1.16-15.29-5.39-20.11-11.9-2.98-4.03-4.92-8.71-5.77-13.75-2.96,.81-6,1.24-9.06,1.24h-49.07c-6.07,0-11.73-2.63-15.55-7.22-.25-.3-.48-.6-.71-.91-3.6,1.12-7.3,1.71-10.99,1.71-1.02,0-2.06-.05-3.07-.14-5.1-.46-9.85-2.08-13.95-4.71-7.15,13.11-20.67,22.64-34.41,23.81-1.01,.09-2.03,.13-3.03,.13-11.43,0-21.06-5.55-26.48-14.47-1.12,1.25-2.33,2.44-3.57,3.61-.13,.13-.27,.26-.4,.38l-34.15,31.21c-6.4,6.11-14.34,9.47-22.41,9.47Z"/>
    <path class="cls-2" d="M190.16,199.3c-1.25,0-2.51-.08-3.74-.25-6.93-.94-13-4.51-17.12-10.05-4.38-5.91-6.1-13.44-4.83-21.21,.63-3.9,2.01-7.77,4.04-11.36h-23.43c-9.3,0-17.77-4.05-23.23-11.12-5.76-7.45-7.59-17.45-5-27.42,4.54-17.47,20.62-30.65,37.42-30.65h49.61c6.06,0,11.73,2.63,15.55,7.22,.25,.3,.48,.6,.71,.91,3.6-1.12,7.29-1.71,10.99-1.71,1.02,0,2.06,.05,3.07,.14,2.84,.25,5.57,.87,8.15,1.82,.23-3.2,.96-6.42,2.18-9.55,4.64-11.9,15.74-20.88,27.61-22.38,1.22-.15,2.44-.23,3.64-.23,9.97,0,18.81,5.37,23.19,14.05l9.06,16.73c2.13-3.18,4.68-6.14,7.59-8.79,.14-.14,.28-.27,.42-.4l34.15-31.21c6.4-6.11,14.34-9.47,22.41-9.47,1.25,0,2.51,.08,3.74,.25,6.93,.94,13,4.5,17.11,10.05,4.38,5.91,6.1,13.45,4.83,21.21-.64,3.91-2.01,7.77-4.04,11.36h23.96c9.27,0,17.66,4.1,23.01,11.24,1.61,2.15,2.9,4.5,3.85,7l3.94-3.26c6.52-5.39,14.3-8.44,22-8.64,.25-.01,.5-.02,.76-.02h80.75c9.71,0,18.32,4.42,23.64,12.12,5.87,8.5,6.87,19.63,2.74,30.53-5.23,13.81-17.93,24.35-31.61,26.22-1.5,.21-3.02,.31-4.5,.31-11.93,0-21.96-6.6-26.46-17.31-.05-.12-.1-.23-.15-.35l-3.81-8.87h-14.29l-12.94,21.08-.84,1.39c-.07,.12-.14,.23-.21,.34-8.12,13.46-22.32,22.13-36.38,22.13-1.62,0-3.24-.11-4.83-.34-8.15-1.16-15.29-5.39-20.11-11.9-2.98-4.03-4.92-8.71-5.77-13.75-2.96,.81-6,1.24-9.06,1.24h-49.07c-6.07,0-11.73-2.63-15.55-7.22-.25-.3-.48-.6-.71-.91-3.6,1.12-7.3,1.71-10.99,1.71-1.02,0-2.06-.05-3.07-.14-5.1-.46-9.85-2.08-13.95-4.71-7.15,13.11-20.67,22.64-34.41,23.81-1.01,.09-2.03,.13-3.03,.13-11.43,0-21.06-5.55-26.48-14.47-1.12,1.25-2.31,2.46-3.57,3.61-.13,.13-.27,.26-.4,.38l-34.15,31.21c-6.4,6.11-14.34,9.47-22.41,9.47Z"/>
  </g>
  <path class="cls-1" d="M231.51,116.83c-1.02,6.74-4.82,12.95-9.84,17.37h.01s-34.31,31.37-34.31,31.37h0c-3.47,3.36-8.01,5.34-12.24,4.77-5.31-.72-8.42-5.63-7.43-11.67,.45-2.76,1.64-5.36,3.27-7.61h0s11.35-17.58,11.35-17.58c1.82-2.82,.79-5.91-1.99-5.91h-48.8c-8.81,0-14.28-7.58-11.77-17.26,2.56-9.86,12.01-17.92,20.96-17.92h49.61c2.08,0,3.52,1.65,3.1,3.92-.48,2.62-2.96,4.82-5.29,4.82-7.79,1.25-15.72,4.11-23.34,8.4l-2.5,1.41c-4,2.26-4.12,7.96-.17,7.96h23.29c3.82,0,7.96-2.54,10.47-6.43l.52-.81c5.3-8.05,14.34-13.55,22.72-12.8,8.6,.77,13.85,8.33,12.39,17.96Zm55.77-12l-16.98-31.36h0c-1.61-3.36-5.06-5.34-9.6-4.77-5.7,.72-11.53,5.63-13.88,11.68-1.07,2.76-1.32,5.35-.93,7.61h-.01s1.64,17.58,1.64,17.58l1.96,20.99,.08,.81c.85,8.05,6.85,13.55,15.65,12.8,9.03-.77,18.45-8.33,22.32-17.96,2.71-6.74,2.33-12.95-.25-17.37h.02Zm117.36-12.46h-49.33c-2.77,0-3.81-3.09-1.99-5.91l11.35-17.57h0c1.63-2.26,2.82-4.86,3.27-7.62,.98-6.04-2.12-10.96-7.43-11.68-4.23-.57-8.78,1.41-12.24,4.77h0l-34.31,31.36h.01c-5.02,4.43-8.82,10.63-9.84,17.38-1.45,9.62,3.79,17.18,12.39,17.96,8.38,.75,17.42-4.75,22.72-12.8l.52-.81c2.51-3.89,6.65-6.43,10.47-6.43h23.29c3.95,0,3.83,5.71-.17,7.96l-2.5,1.41c-7.62,4.3-15.55,7.15-23.34,8.4-2.33,0-4.81,2.21-5.29,4.82-.42,2.28,1.02,3.92,3.1,3.92h49.07c8.81,0,18.47-7.57,21.3-17.26,2.89-9.86-2.12-17.91-11.06-17.91Zm134.31,6.33h-80.76c-3.86,.02-8.13,1.63-11.91,4.76l-15.51,12.81c-.12,.1-.24,.19-.36,.3l-.09,.08h0c-5.12,4.41-9.03,10.68-10.09,17.49-1.46,9.32,3.34,16.81,11.5,17.98,9.1,1.3,19.15-5.01,24.46-14.11h0s.89-1.46,.89-1.46l13.79-22.47c2.48-4.04,6.73-6.72,10.65-6.72h23.88c2.9,0,5.23,1.47,6.31,3.99l6.52,15.17s.01-.01,.01-.01c1.89,5.04,6.68,8.11,13.16,7.22,7.47-1.03,15.02-7.49,18.02-15.4,4.02-10.63-1.03-19.63-10.48-19.63Z"/>
  <path d="M359.54,207.87c-145.21,.22-297.82-31.31-314.01-71.79-8.02-20.06,35.4-39.38,76.94-52.69C40.1,95.46-9.9,120.53,1.65,149.43c16.19,40.48,147.03,73.12,292.24,72.9,73.26-.11,136.17-8.56,178.46-22.11-33.03,4.84-71.25,7.59-112.8,7.65Z"/>
</svg>